# xmcd
#
# Track frame offsets:
#	150
#	16702
#	35734
#	59600
#	76833
#	91363
#	107183
#	120032
#	139935
#	160998
#	171773
#	186496
#	198862
#	210946
#	222037
#	236717
#
# Disc length: 3380 seconds
#
# Revision: 0
# Processed by: cddbd v1.4PL0 Copyright (c) Steve Scherf et al.
# Submitted via: dBpowerAMP V4.0
#
DISCID=d40d3210
DTITLE=Townes van zandt - Singer Songwriter
DYEAR=2001
DGENRE=Country
TTITLE0=Pacho and lefty
TTITLE1=You are not needed now
TTITLE2=For the sake of the song
TTITLE3=Loretta
TTITLE4=When she dont need me
TTITLE5=No place to fall
TTITLE6=Dont take it too bad
TTITLE7=Flyin shoes
TTITLE8=Sad Cinderella
TTITLE9=Waiting around to die
TTITLE10=Colorado girl
TTITLE11=I'll be there in the morning
TTITLE12=Tecumseh valley
TTITLE13=Only him or me
TTITLE14=To live is to fly
TTITLE15=If I needed you
EXTD=
EXTT0=
EXTT1=
EXTT2=
EXTT3=
EXTT4=
EXTT5=
EXTT6=
EXTT7=
EXTT8=
EXTT9=
EXTT10=
EXTT11=
EXTT12=
EXTT13=
EXTT14=
EXTT15=
PLAYORDER=
